HIERARCHY
ROOT hip
{
	OFFSET 0.000000 0.000000 0.000000 
	CHANNELS 6 Xposition Yposition Zposition Zrotation Xrotation Yrotation
	JOINT abdomen
	{
		OFFSET 0.000000 3.402643 0.000000 
		CHANNELS 3 Zrotation Xrotation Yrotation
		JOINT chest
		{
			OFFSET 0.000000 8.438565 -0.680529 
			CHANNELS 3 Zrotation Xrotation Yrotation
			JOINT neck
			{
				OFFSET 0.000000 10.207942 -0.272212 
				CHANNELS 3 Zrotation Xrotation Yrotation
				JOINT head
				{
					OFFSET 0.000000 3.130431 0.000000 
					CHANNELS 3 Zrotation Xrotation Yrotation
					End Site
					{
						OFFSET 0.000000 3.130435 0.000000 
					}
				}
			}
			JOINT lCollar
			{
				OFFSET 3.470700 6.669187 -0.816635 
				CHANNELS 3 Zrotation Xrotation Yrotation
				JOINT lShldr
				{
					OFFSET 3.198488 0.000000 0.000000 
					CHANNELS 3 Zrotation Xrotation Yrotation
					JOINT lForeArm
					{
						OFFSET 10.139888 0.000000 0.000000 
						CHANNELS 3 Zrotation Xrotation Yrotation
						JOINT lHand
						{
							OFFSET 8.370511 0.000000 0.000000 
							CHANNELS 3 Zrotation Xrotation Yrotation
							End Site
							{
								OFFSET 4.083176 0.000000 0.000000 
							}
						}
					}
				}
			}
			JOINT rCollar
			{
				OFFSET -3.470700 6.669187 -0.816635 
				CHANNELS 3 Zrotation Xrotation Yrotation
				JOINT rShldr
				{
					OFFSET -3.198488 0.000000 0.000000 
					CHANNELS 3 Zrotation Xrotation Yrotation
					JOINT rForeArm
					{
						OFFSET -10.139888 0.000000 0.000000 
						CHANNELS 3 Zrotation Xrotation Yrotation
						JOINT rHand
						{
							OFFSET -8.370511 0.000000 0.000000 
							CHANNELS 3 Zrotation Xrotation Yrotation
							End Site
							{
								OFFSET -4.083176 0.000000 0.000000 
							}
						}
					}
				}
			}
		}
	}
	JOINT lThigh
	{
		OFFSET 5.308129 -1.633274 1.361059 
		CHANNELS 3 Zrotation Xrotation Yrotation
		JOINT lShin
		{
			OFFSET -2.041588 -20.007561 0.000000 
			CHANNELS 3 Zrotation Xrotation Yrotation
			JOINT lFoot
			{
				OFFSET 0.000000 -19.190928 -1.224953 
				CHANNELS 3 Zrotation Xrotation Yrotation
				End Site
				{
					OFFSET 0.000000 -2.449906 4.627600 
				}
			}
		}
	}
	JOINT rThigh
	{
		OFFSET -5.308129 -1.633274 1.361059 
		CHANNELS 3 Zrotation Xrotation Yrotation
		JOINT rShin
		{
			OFFSET 2.041588 -20.007561 0.000000 
			CHANNELS 3 Zrotation Xrotation Yrotation
			JOINT rFoot
			{
				OFFSET 0.000000 -19.190928 -1.224953 
				CHANNELS 3 Zrotation Xrotation Yrotation
				End Site
				{
					OFFSET 0.000000 -2.449906 4.627600 
				}
			}
		}
	}
}
MOTION
Frames: 15
Frame Time: 0.016667
-0.146637 41.849705 0.392452 -2.431640 3.242180 -3.154580 -1.753240 15.205700 0.256823 -0.486601 -21.092699 -0.607131 -8.947850 1.583830 4.893120 0.369003 5.801950 2.455650 -1.998780 -0.069785 1.998780 -85.261200 14.174900 2.949630 1.177660 -1.398020 -35.180401 -0.052001 38.042999 0.011065 1.998780 -0.069785 -1.998780 84.547096 11.179300 2.417040 0.787566 0.213358 33.477001 -0.049570 67.440903 0.127541 2.161850 -14.990800 0.519214 2.748180 29.516899 0.995749 -2.262240 -10.718600 -8.668440 3.324111 -12.689300 2.452120 -2.595120 25.971701 -1.042610 -0.531517 -14.422900 -2.752820 
-0.160209 41.831604 0.341328 -2.343750 3.417970 -3.535440 -1.692880 15.216100 0.284372 -0.511989 -20.985500 -0.512496 -8.949350 1.200950 5.107010 0.329938 5.694470 2.585320 -1.998780 -0.069785 1.998780 -85.149803 14.007400 3.087990 1.186460 -1.406390 -35.639099 -0.052150 37.974998 0.011297 1.998780 -0.069785 -1.998780 84.670998 11.792800 2.640340 0.807904 0.224025 34.130798 -0.052995 67.753998 0.131347 2.224690 -15.343500 0.835442 2.722880 29.746401 1.036250 -2.278400 -10.542800 -8.928480 3.372230 -13.327600 3.091000 -2.602410 26.777599 -1.047870 -0.524541 -14.545700 -2.733380 
-0.174215 41.801903 0.279476 -2.314450 3.564460 -3.857700 -1.731680 15.079000 0.347011 -0.566778 -20.937000 -0.418235 -8.969100 0.924406 5.346190 0.281024 5.616260 2.715700 -1.998780 -0.069785 1.998780 -85.102699 13.680000 3.454770 1.199060 -1.418610 -36.302502 -0.052043 38.023998 0.011131 1.998780 -0.069785 -1.998780 84.855499 12.436300 2.735200 0.829325 0.235579 34.823700 -0.056408 68.056900 0.135128 2.313310 -15.686300 1.050040 2.721160 30.021700 1.038280 -2.273850 -10.379700 -9.119990 3.463620 -13.875500 3.708360 -2.608720 27.643400 -1.078270 -0.517614 -15.026100 -2.779040 
-0.193975 41.763103 0.201513 -2.246100 3.701170 -4.121360 -1.792090 15.078400 0.407364 -0.631275 -20.780899 -0.323807 -8.965610 0.586894 5.630620 0.241944 5.528300 2.874670 -1.998780 -0.069785 1.998780 -85.059402 13.361400 3.810780 1.214990 -1.434470 -37.151501 -0.052319 37.896999 0.011560 1.998780 -0.069785 -1.998780 84.996696 13.126600 3.001770 0.850600 0.247391 35.516499 -0.058658 68.251900 0.137616 2.321980 -16.117800 1.097620 2.711160 30.367500 1.066810 -2.272340 -10.323600 -9.190220 3.561690 -14.572600 4.434850 -2.614630 28.764200 -1.101740 -0.493962 -15.767900 -2.739120 
-0.226372 41.716904 0.111739 -2.021480 3.759770 -4.306900 -1.822740 15.117100 0.447423 -0.782474 -20.556400 -0.281623 -8.908890 0.275748 5.974730 0.212627 5.469650 3.062260 -1.998780 -0.069785 1.998780 -84.972900 13.111100 4.187340 1.232470 -1.452420 -38.097900 -0.052741 37.701000 0.012218 1.998780 -0.069785 -1.998780 85.175301 13.855100 3.280820 0.872625 0.259977 36.238602 -0.060147 68.378899 0.139259 2.212380 -16.361300 1.123040 2.674540 30.557301 1.084100 -2.264850 -10.200700 -9.325490 3.514120 -15.250000 5.133260 -2.602800 29.915899 -1.137280 -0.475891 -16.399900 -2.615060 
-0.267269 41.673904 0.006603 -1.621100 3.730470 -4.394770 -1.853070 15.126500 0.467867 -1.032550 -20.283001 -0.270736 -8.776240 -0.131285 6.285110 0.222610 5.372020 3.237350 -1.998780 -0.069785 1.998780 -84.869797 12.763400 4.581260 1.251050 -1.472170 -39.122501 -0.053242 37.466999 0.013004 1.998780 -0.069785 -1.998780 85.385902 14.632300 3.471990 0.898310 0.275125 37.087601 -0.060843 68.437897 0.140026 1.886680 -16.580099 1.160630 2.675600 30.813499 1.106270 -2.278760 -9.977170 -9.548210 3.270301 -16.020100 5.849690 -2.628660 31.319000 -1.144850 -0.502803 -16.195200 -2.798290 
-0.314523 41.635006 -0.120778 -1.308600 3.671870 -4.306840 -1.973040 15.056800 0.500457 -1.280160 -19.990000 -0.280653 -8.771420 -0.804382 6.446400 0.183800 5.147330 3.337700 -1.998780 -0.069785 1.998780 -84.822701 12.269400 4.951130 1.270300 -1.493420 -40.205601 -0.054105 37.056999 0.014364 1.998780 -0.069785 -1.998780 85.533401 15.470300 3.574910 0.926684 0.292462 38.034100 -0.060031 68.368896 0.139131 1.659010 -16.809601 1.043310 2.659330 31.109800 1.120550 -2.291490 -9.600900 -9.953130 3.130260 -16.736200 6.672120 -2.642740 32.762699 -1.171810 -0.283426 -16.351500 -2.189190 
-0.378950 41.592705 -0.258978 -1.093750 3.496090 -4.091970 -2.092920 14.986900 0.533018 -1.478890 -19.628700 -0.290409 -8.840610 -1.522770 6.536280 0.115610 4.922600 3.401050 -1.998780 -0.069785 1.998780 -84.837700 11.640500 5.237280 1.286970 -1.512470 -41.161900 -0.055505 36.373001 0.016599 1.998780 -0.069785 -1.998780 85.481300 16.423700 3.691530 0.955340 0.310637 39.000198 -0.058891 68.271896 0.137872 1.556730 -17.076000 0.846458 2.672300 31.659300 1.128850 -2.359120 -9.017870 -10.813300 3.083750 -17.283600 7.628670 -2.665970 34.185398 -1.186620 0.150518 -16.075899 -0.939652 
-0.459805 41.528805 -0.408501 -0.791015 3.271490 -3.789200 -2.162400 14.917700 0.547827 -1.694600 -19.208700 -0.320705 -8.644680 -2.037310 6.658080 0.204065 4.786040 3.472990 -1.998780 -0.069785 1.998780 -84.874496 10.818900 5.459030 1.299840 -1.527630 -41.913200 -0.057391 35.416000 0.019663 1.998780 -0.069785 -1.998780 85.328697 17.309401 3.788640 0.983115 0.328909 39.946701 -0.086349 68.524902 0.167831 1.404630 -17.281099 0.781422 2.664550 32.189999 1.125440 -2.413320 -8.213600 -11.918600 2.988560 -17.779301 8.622250 -2.683190 35.559799 -1.214840 0.594014 -15.830000 0.420611 
-0.554908 41.433403 -0.581332 -0.458984 3.115230 -3.310630 -2.280250 14.720800 0.589623 -1.905580 -18.857100 -0.309745 -8.350420 -2.516690 6.662630 0.351272 4.649570 3.472470 -1.998780 -0.069785 1.998780 -84.925003 9.822040 5.727230 1.310050 -1.539960 -42.518200 -0.059353 34.370998 0.022923 1.998780 -0.069785 -1.998780 85.166000 17.799200 3.643890 1.010310 0.347446 40.883499 -0.093916 69.081902 0.176025 1.285300 -17.634600 0.756867 2.646850 32.860699 1.173810 -2.450650 -7.529740 -13.122600 2.872170 -18.290501 9.542830 -2.698460 36.727001 -1.217540 0.887354 -15.649500 1.261070 
-0.664343 41.306606 -0.763433 0.048828 2.929690 -2.539060 -2.396460 14.436000 0.631009 -2.165420 -18.525200 -0.298576 -7.992040 -3.123760 6.485820 0.518105 4.454520 3.372920 -1.998780 -0.069785 1.998780 -84.962303 8.532410 6.107850 1.317550 -1.549180 -42.967098 -0.060949 33.483002 0.025632 1.998780 -0.069785 -1.998780 84.962402 17.823000 3.316010 1.032450 0.363029 41.654301 -0.103647 69.755898 0.186514 0.989390 -18.090799 0.733548 2.652520 33.695999 1.204260 -2.605260 -6.976730 -14.732700 2.478010 -18.774500 10.100600 -2.721570 37.697102 -1.211340 0.894839 -15.592100 1.358270 
-0.776125 41.173603 -0.943252 0.478515 2.783200 -1.445240 -2.582600 14.169500 0.648256 -2.428450 -18.163601 -0.380149 -7.612780 -3.920900 6.200340 0.684966 4.171530 3.234300 -1.998780 -0.069785 1.998780 -84.925903 6.505900 6.467830 1.320460 -1.552800 -43.142700 -0.060828 33.550999 0.025425 1.998780 -0.069785 -1.998780 84.674301 17.378700 2.991660 1.045520 0.372442 42.112900 -0.121267 70.868896 0.205380 0.790480 -18.588600 0.624901 2.613970 34.533401 1.229050 -2.661410 -5.849850 -17.034000 2.001940 -19.211700 10.086700 -2.712850 38.404900 -1.233420 0.910848 -16.483101 1.494430 
-0.903060 41.043606 -1.120600 0.673828 2.773440 -0.204966 -2.761040 14.069000 0.643005 -2.571570 -17.763000 -0.481660 -7.344930 -4.647150 5.868010 0.822307 3.927560 3.068440 -1.998780 -0.069785 1.998780 -84.769798 3.679400 6.715900 1.319170 -1.551190 -43.064701 -0.058043 35.074001 0.020738 1.998780 -0.069785 -1.998780 84.226997 16.387600 2.713640 1.048570 0.374660 42.220200 -0.156630 72.763802 0.242858 0.885510 -19.365101 0.452656 2.630620 35.583500 1.250330 -2.496360 -4.279690 -19.729200 1.729460 -19.546000 9.817610 -2.697150 38.789700 -1.271200 0.822797 -16.925501 1.270420 
-1.044520 40.894806 -1.281700 0.849609 2.919920 1.152490 -2.910900 14.056700 0.656801 -2.645210 -17.401501 -0.552097 -7.182270 -5.153150 5.439370 0.959469 3.790970 2.853780 -1.998780 -0.069785 1.998780 -84.333603 0.691112 6.978510 1.311360 -1.541560 -42.596298 -0.053552 37.320000 0.013491 1.998780 -0.069785 -1.998780 83.714798 14.204700 2.428700 1.027700 0.359650 41.488400 -0.213912 75.136803 0.302773 1.012090 -20.220699 0.205325 2.623790 36.457600 1.262120 -1.863750 -1.947640 -22.595501 1.547340 -19.922800 9.382160 -2.711460 39.102402 -1.253910 0.568008 -17.926300 0.576423 
-1.190670 40.749104 -1.430060 0.849609 3.242180 2.666160 -3.127420 13.877000 0.704214 -2.639900 -17.254900 -0.592402 -7.076200 -5.565480 4.907770 1.077020 3.644580 2.591650 -1.998780 -0.069785 1.998780 -83.473000 -2.157200 7.592420 1.295510 -1.522490 -41.659500 -0.048296 39.674000 0.005404 1.998780 -0.069785 -1.998780 83.147598 11.484900 1.731300 0.997314 0.338508 40.434601 -0.300819 77.694702 0.392503 1.275330 -21.324499 -0.212533 2.625870 37.371300 1.296640 -0.501345 1.329840 -25.516500 1.507930 -20.294399 8.601760 -2.697580 39.133301 -1.276300 -0.054841 -18.822901 -1.103500 
